<!-- Generated by IcoMoon.io -->
<svg version="1.1" xmlns="http://www.w3.org/2000/svg" width="2304" height="1024" viewBox="0 0 2304 1024">
<title></title>
<g id="icomoon-ignore">
</g>
<path fill="#f5f4fa" d="M34.133 0h2235.733c18.851 0 34.133 15.282 34.133 34.133v955.733c0 18.851-15.282 34.133-34.133 34.133h-2235.733c-18.851 0-34.133-15.282-34.133-34.133v-955.733c0-18.851 15.282-34.133 34.133-34.133z"></path>
<path fill="#212121" d="M1437.534 498.957c-0.026-157.778-127.957-285.655-285.747-285.623-157.773 0.032-285.653 127.968-285.619 285.746 0.026 124.282 80.393 234.286 198.793 272.089 1.126 0.356 2.304 0.538 3.482 0.533 2.253-0.004 4.454-0.606 6.391-1.75 2.526-1.49 4.403-3.86 5.291-6.653l72.149-228.667c19.721-0.1 35.627-16.173 35.516-35.893-0.094-19.724-16.162-35.629-35.891-35.529-5.299 0.022-10.539 1.244-15.309 3.573l-95.309-95.325c-4.727-4.566-12.262-4.434-16.828 0.292-4.463 4.617-4.463 11.926 0 16.543l95.258 95.37c-7.305 14.921-3.132 32.931 10.018 43.103l-68.745 217.894c-135.851-50.044-205.414-200.74-155.375-336.592 50.048-135.853 200.738-205.415 336.597-155.372 135.851 50.043 205.414 200.744 155.366 336.592-24.448 66.372-74.684 120.048-139.29 148.837l-7.433-34.987c-1.357-6.43-7.68-10.541-14.106-9.178-2.031 0.433-3.908 1.386-5.461 2.767l-71.62 63.944c-4.915 4.37-5.35 11.894-0.981 16.807 1.425 1.595 3.251 2.779 5.291 3.431l91.443 29.185c6.255 2.010 12.962-1.431 14.967-7.693 0.64-1.978 0.742-4.083 0.316-6.116l-7.296-34.33c105.728-44.576 174.379-148.254 174.131-262.997zM1151.855 487.054c6.571 0 11.904 5.332 11.904 11.903 0 6.577-5.333 11.904-11.904 11.904-6.579 0-11.904-5.327-11.904-11.904 0-6.572 5.325-11.903 11.904-11.903zM1191.057 764.515l40.772-36.367 11.255 53.019-52.028-16.652z"></path>
<path fill="#2196f3" d="M1139.951 272.788v23.807c0 6.576 5.325 11.904 11.904 11.904 6.571 0 11.904-5.328 11.904-11.904v-23.807c0-6.572-5.333-11.904-11.904-11.904-6.579 0-11.904 5.332-11.904 11.904z"></path>
<path fill="#2196f3" d="M925.687 487.053c-6.579 0-11.904 5.332-11.904 11.904 0 6.576 5.325 11.904 11.904 11.904h23.808c6.571 0 11.904-5.328 11.904-11.904 0-6.572-5.333-11.904-11.904-11.904h-23.808z"></path>
<path fill="#2196f3" d="M1378.022 510.861c6.571 0 11.904-5.328 11.904-11.904 0-6.572-5.333-11.904-11.904-11.904h-23.808c-6.571 0-11.904 5.332-11.904 11.904 0 6.576 5.333 11.904 11.904 11.904h23.808z"></path>
</svg>
