<!-- Generated by IcoMoon.io -->
<svg version="1.1" xmlns="http://www.w3.org/2000/svg" width="2304" height="1024" viewBox="0 0 2304 1024">
<title></title>
<g id="icomoon-ignore">
</g>
<path fill="#f5f4fa" d="M34.133 0h2235.733c18.851 0 34.133 15.282 34.133 34.133v955.733c0 18.851-15.282 34.133-34.133 34.133h-2235.733c-18.851 0-34.133-15.282-34.133-34.133v-955.733c0-18.851 15.282-34.133 34.133-34.133z"></path>
<path fill="#2196f3" d="M1450.18 297.783c-1.169-3.595-4.275-6.223-8.030-6.77l-35.661-5.187-15.957-32.316c-3.345-6.81-14.507-6.81-17.852 0l-15.957 32.316-35.669 5.188c-3.746 0.547-6.852 3.167-8.038 6.77-1.169 3.604-0.205 7.566 2.517 10.205l25.813 25.159-6.093 35.522c-0.631 3.733 0.896 7.507 3.951 9.737 3.098 2.25 7.142 2.528 10.496 0.756l31.898-16.776 31.898 16.776c1.459 0.766 3.055 1.144 4.642 1.144 2.057 0 4.122-0.637 5.854-1.902 3.063-2.229 4.599-6.003 3.951-9.737l-6.093-35.523 25.813-25.158c2.705-2.649 3.686-6.601 2.517-10.205zM1404.211 322.552c-2.338 2.279-3.422 5.585-2.859 8.811l3.558 20.797-18.671-9.817c-1.451-0.766-3.046-1.144-4.642-1.144-1.587 0-3.174 0.378-4.642 1.144l-18.671 9.817 3.558-20.797c0.563-3.226-0.512-6.52-2.859-8.811l-15.121-14.735 20.89-3.036c3.243-0.468 6.042-2.509 7.501-5.447l9.335-18.915 9.335 18.915c1.459 2.937 4.25 4.978 7.501 5.447l20.881 3.036-15.095 14.735z"></path>
<path fill="#2196f3" d="M1341.158 596.414h-19.908v19.912h19.908v-19.912z"></path>
<path fill="#2196f3" d="M1341.158 636.238h-19.908v19.912h19.908v-19.912z"></path>
<path fill="#2196f3" d="M1361.067 616.326h-19.908v19.912h19.908v-19.912z"></path>
<path fill="#2196f3" d="M1321.25 616.326h-19.917v19.912h19.917v-19.912z"></path>
<path fill="#2196f3" d="M1271.467 705.928h-19.908v19.912h19.908v-19.912z"></path>
<path fill="#2196f3" d="M1271.467 745.75h-19.908v19.912h19.908v-19.912z"></path>
<path fill="#2196f3" d="M1291.383 725.839h-19.917v19.912h19.917v-19.912z"></path>
<path fill="#2196f3" d="M1251.558 725.839h-19.917v19.912h19.917v-19.912z"></path>
<path fill="#2196f3" d="M1152 666.105h-19.908v19.912h19.908v-19.912z"></path>
<path fill="#2196f3" d="M1152 705.928h-19.908v19.912h19.908v-19.912z"></path>
<path fill="#2196f3" d="M1171.908 686.016h-19.908v19.912h19.908v-19.912z"></path>
<path fill="#2196f3" d="M1132.092 686.016h-19.917v19.912h19.917v-19.912z"></path>
<path fill="#2196f3" d="M962.842 327.61h-19.908v19.912h19.908v-19.912z"></path>
<path fill="#2196f3" d="M962.842 367.434h-19.908v19.912h19.908v-19.912z"></path>
<path fill="#2196f3" d="M982.75 347.522h-19.908v19.912h19.908v-19.912z"></path>
<path fill="#2196f3" d="M942.933 347.522h-19.917v19.912h19.917v-19.912z"></path>
<path fill="#212121" d="M1314.679 477.643c-5.367-7.238-13.244-11.896-22.187-13.152-8.977-1.274-17.843 1.085-25.011 6.571l-23.373 17.92-35.422 26.452-25.353-10.096c45.201-20.279 76.791-65.488 76.791-117.975 0-71.363-58.291-129.423-129.937-129.423-71.654 0-129.946 58.061-129.946 129.423 0 25.865 7.74 49.917 20.907 70.158l-51.593-0.448c-0.026 0-0.060 0-0.085 0-0.162 0-0.29 0.079-0.435 0.090-0.99 0.040-1.954 0.239-2.901 0.578-0.239 0.090-0.486 0.14-0.717 0.248-0.119 0.050-0.239 0.060-0.358 0.119l-60.348 29.797c-0.009 0-0.026 0-0.026 0.009l-35.337 16.997c-0.393 0.169-0.794 0.398-1.178 0.656-14.089 9.378-18.887 27.796-11.17 42.849 4.113 8.004 11.11 13.898 19.712 16.596 3.319 1.035 6.699 1.544 10.069 1.544 5.402 0 10.761-1.324 15.667-3.942l25.907-13.778 42.257-21.823 25.327-0.149-101.581 101.091c-0.009 0.010-0.017 0.010-0.026 0.020l-24.994 24.889c-5.897 5.874-9.148 13.669-9.148 21.983 0 8.303 3.251 16.118 9.148 22.002 6.067 6.033 14.046 9.059 22.016 9.059 7.987 0 15.949-3.026 22.033-9.059l24.533-24.432 32.495-24.262 16.811 16.745-32.879 32.744c-0.017 0.011-0.026 0.011-0.034 0.020l-24.986 24.888c-5.905 5.874-9.156 13.669-9.156 21.983 0 8.304 3.251 16.118 9.156 22.002 6.059 6.033 14.046 9.060 22.016 9.060 7.979 0 15.966-3.027 22.033-9.060l64.99-64.711c0.009-0.011 0.009-0.020 0.026-0.031l18.842-18.667-0.068-0.070c0.119-0.119 0.29-0.16 0.41-0.288l96.427-105.62 64.794 9.219c0.469 0.070 0.939 0.1 1.408 0.1 1.203 0 2.364-0.288 3.49-0.717 0.333-0.119 0.614-0.279 0.93-0.438 0.358-0.179 0.734-0.278 1.075-0.507l59.981-39.823c0.222-0.149 0.341-0.389 0.546-0.548 0.239-0.189 0.538-0.268 0.759-0.478l23.731-22.231c12.348-11.571 14.054-30.526 3.959-44.086zM893.099 545.043c-3.234 1.732-6.903 2.080-10.419 0.966-3.49-1.085-6.315-3.465-7.97-6.681-3.004-5.855-1.263-12.983 4.002-16.835l24.525-11.797 5.905 17.253 2.475 7.247-18.517 9.847zM958.379 510.925l-28.902 14.934-4.762-13.938-3.43-10.016 37.837-18.677-0.742 27.697zM1240.235 387.344c0 17.143-4.087 33.312-11.179 47.776l-78.054-35.452c-0.811-10.702-6.366-20.070-14.711-25.905l27.324-90.726c44.39 14.118 76.621 55.524 76.621 104.306zM1020.177 387.344c0-60.382 49.357-109.513 110.029-109.513 4.719 0 9.335 0.398 13.909 0.975l-26.735 88.736c-0.358-0.010-0.691-0.109-1.058-0.109-19.277 0-34.961 15.63-34.961 34.845s15.684 34.846 34.961 34.846c12.962 0 24.158-7.158 30.199-17.632l72.098 32.754c-20.062 26.999-52.164 44.612-88.414 44.612-60.672 0-110.029-49.132-110.029-109.513zM1131.358 402.278c0 8.234-6.75 14.933-15.036 14.933-8.294 0-15.044-6.7-15.044-14.933s6.75-14.933 15.044-14.933c8.286 0 15.036 6.7 15.036 14.933zM899.345 682.73c-4.412 4.371-11.554 4.361-15.949 0.011-2.125-2.121-3.285-4.918-3.285-7.895 0-2.967 1.161-5.765 3.285-7.865l17.954-17.891 15.889 15.82-17.894 17.82zM959.334 752.421c-4.412 4.371-11.554 4.381-15.957 0.010-2.125-2.121-3.285-4.917-3.285-7.895 0-2.966 1.161-5.764 3.285-7.864l17.971-17.9 15.898 15.82-17.911 17.83zM1024.324 687.669c-0.009 0.009-0.017 0.009-0.026 0.020l-32.947 32.853-15.898-15.82 32.913-32.764c0 0 0 0 0-0.009 0.009-0.010 0.017-0.010 0.034-0.020 0.742-0.747 1.212-1.643 1.673-2.528 0.128-0.259 0.375-0.479 0.486-0.747 0.307-0.766 0.358-1.592 0.478-2.4 0.060-0.459 0.256-0.886 0.256-1.355 0-0.667-0.239-1.313-0.375-1.971-0.119-0.597-0.119-1.206-0.35-1.782-0.375-0.936-1.024-1.762-1.698-2.569-0.196-0.219-0.265-0.498-0.469-0.707 0 0 0 0-0.017 0-0.009-0.009-0.009-0.031-0.017-0.040l-29.995-29.867c-0.316-0.319-0.725-0.448-1.084-0.717-0.529-0.408-1.033-0.786-1.621-1.075-0.572-0.279-1.152-0.448-1.749-0.608-0.631-0.179-1.254-0.318-1.92-0.369-0.606-0.039-1.169 0.020-1.775 0.090-0.674 0.079-1.297 0.169-1.946 0.378-0.631 0.199-1.186 0.507-1.758 0.836-0.375 0.209-0.794 0.279-1.135 0.538l-33.109 24.711-16.811-16.746 44.783-44.541 81.391 80.055-17.314 17.154zM1151.607 556.691c-0.282-0.040-0.555 0.070-0.845 0.050-0.725-0.040-1.417 0.010-2.15 0.129-0.563 0.1-1.101 0.209-1.638 0.399-0.64 0.219-1.212 0.518-1.801 0.876-0.563 0.339-1.067 0.697-1.553 1.145-0.239 0.208-0.529 0.309-0.751 0.547l-87.697 96.053-80.794-79.457 52.881-52.605c3.9-3.883 3.917-10.185 0.034-14.088-1.963-1.961-4.54-2.927-7.117-2.917v-0.009l-41.421 0.248 0.521-30.006 57.941 0.498c23.62 24.153 56.55 39.216 92.988 39.216 8.166 0 16.128-0.846 23.885-2.29 0.742 0.597 1.485 1.205 2.415 1.583l44.988 17.921 2.842 14.156 3.328 16.527-56.055-7.974zM1227.042 560.016l-5.837-29.082 26.999-20.16 17.673 23.455-38.835 25.787zM1297.109 507.171l-15.633 14.654-17.382-23.077 15.514-11.897c2.901-2.229 6.554-3.136 10.138-2.668 3.601 0.507 6.793 2.389 8.96 5.306 4.045 5.446 3.354 13.042-1.596 17.681z"></path>
<path fill="#212121" d="M1107.243 559.489l-40.004-39.823c-3.874-3.872-10.163-3.872-14.046 0l-39.996 39.823c-1.869 1.882-2.927 4.41-2.927 7.058s1.041 5.187 2.927 7.059l39.996 39.823c1.937 1.931 4.489 2.897 7.023 2.897 2.543 0 5.086-0.966 7.023-2.897l40.004-39.823c1.869-1.871 2.935-4.41 2.935-7.059s-1.058-5.187-2.935-7.058zM1060.215 592.323l-25.882-25.776 25.882-25.775 25.899 25.775-25.899 25.776z"></path>
<path fill="#212121" d="M1173.734 307.988l-4.813 19.334c1.323 0.329 32.435 8.433 32.435 40.112h19.917c0-37.653-31.095-55.354-47.539-59.446z"></path>
<path fill="#212121" d="M1221.274 387.344h-19.917v19.912h19.917v-19.912z"></path>
</svg>
