<!-- Generated by IcoMoon.io -->
<svg version="1.1" xmlns="http://www.w3.org/2000/svg" width="2304" height="1024" viewBox="0 0 2304 1024">
<title></title>
<g id="icomoon-ignore">
</g>
<path fill="#f5f4fa" d="M34.133 0h2235.733c18.851 0 34.133 15.282 34.133 34.133v955.733c0 18.851-15.282 34.133-34.133 34.133h-2235.733c-18.851 0-34.133-15.282-34.133-34.133v-955.733c0-18.851 15.282-34.133 34.133-34.133z"></path>
<path fill="#2196f3" d="M1131.947 492.673h19.9v89.553h-19.9v-89.553z"></path>
<path fill="#2196f3" d="M1211.546 532.474h19.9v49.752h-19.9v-49.752z"></path>
<path fill="#2196f3" d="M1052.339 562.325h19.9v19.901h-19.9v-19.901z"></path>
<path fill="#2196f3" d="M992.64 552.375h19.9v29.85h-19.9v-29.85z"></path>
<path fill="#212121" d="M883.183 741.431h477.619c16.486 0 29.85-13.366 29.85-29.851v-39.801c0-16.485-13.363-29.851-29.85-29.851h-9.95v-248.141l56.516-53.542c13.116 6.467 28.996 2.54 37.581-9.309 8.593-11.845 7.39-28.156-2.842-38.612s-26.513-12.015-38.545-3.692c-12.032 8.328-16.307 24.113-10.129 37.373l-42.581 40.369v-22.956c0-16.486-13.372-29.851-29.85-29.851h-398.020c-16.478 0-29.85 13.366-29.85 29.851v298.51h-9.95c-16.486 0-29.85 13.367-29.85 29.851v39.801c0 16.486 13.363 29.851 29.85 29.851zM1420.501 303.616c5.495 0 9.95 4.455 9.95 9.951s-4.454 9.95-9.95 9.95c-5.495 0-9.95-4.455-9.95-9.95s4.454-9.951 9.95-9.951zM913.033 343.418c0-5.495 4.454-9.951 9.95-9.951h398.020c5.495 0 9.95 4.455 9.95 9.951v41.789l-19.9 18.909v-40.797c0-5.495-4.463-9.951-9.95-9.951h-358.212c-5.495 0-9.958 4.455-9.958 9.951v248.759c0 5.495 4.463 9.95 9.958 9.95h358.212c5.487 0 9.95-4.455 9.95-9.95v-180.588l19.9-18.856v229.295h-417.92v-298.51zM1002.59 472.772c-13.466-0.039-25.284 8.93-28.868 21.908-3.575 12.977 1.963 26.741 13.542 33.611 11.571 6.87 26.317 5.146 35.994-4.217l34.586 17.355c4.019 2.011 8.892 1.068 11.878-2.289l73.523-82.717 72.277 54.159c3.883 2.906 9.293 2.594 12.809-0.734l62.814-59.503v151.782h-338.304v-228.858h338.304v49.66l-70.4 66.669-72.883-54.64c-4.139-3.099-9.958-2.516-13.406 1.347l-74.53 83.863-27.861-13.934c0.205-1.196 0.324-2.4 0.375-3.61 0-16.486-13.363-29.851-29.85-29.851zM1012.54 502.624c0 5.495-4.454 9.95-9.95 9.95s-9.95-4.455-9.95-9.95c0-5.495 4.454-9.951 9.95-9.951s9.95 4.455 9.95 9.951zM1072.239 661.829h99.507v9.95c0 5.495-4.454 9.951-9.95 9.951h-79.607c-5.495 0-9.95-4.455-9.95-9.951v-9.95zM873.233 671.779c0-5.495 4.454-9.95 9.95-9.95h169.156v9.95c0 16.486 13.363 29.851 29.85 29.851h79.607c16.486 0 29.85-13.366 29.85-29.851v-9.95h169.156c5.495 0 9.95 4.455 9.95 9.95v39.801c0 5.495-4.454 9.951-9.95 9.951h-477.619c-5.495 0-9.95-4.455-9.95-9.951v-39.801z"></path>
</svg>
