<!-- Generated by IcoMoon.io -->
<svg version="1.1" xmlns="http://www.w3.org/2000/svg" width="2304" height="1024" viewBox="0 0 2304 1024">
<title></title>
<g id="icomoon-ignore">
</g>
<path fill="#f5f4fa" d="M34.133 0h2235.733c18.851 0 34.133 15.282 34.133 34.133v955.733c0 18.851-15.282 34.133-34.133 34.133h-2235.733c-18.851 0-34.133-15.282-34.133-34.133v-955.733c0-18.851 15.282-34.133 34.133-34.133z"></path>
<path fill="#212121" d="M1427.763 625.822l-157.602-158.761 17.493-86.156c4.514 1.762 9.31 2.683 14.157 2.718h0.119c22.255 0.263 40.508-17.565 40.772-39.821s-17.57-40.51-39.825-40.774c-22.255-0.263-40.508 17.565-40.772 39.821-0.051 4.762 0.734 9.497 2.33 13.984l-92.587 11.3-151.023-151.812c-1.86-1.89-4.386-2.965-7.031-2.987-2.611 0.014-5.12 1.054-6.972 2.897l-28.228 28.075c-3.891 3.888-3.891 10.19 0 14.077l15.189 15.411c-58.854 108.227-39.74 242.252 47.027 329.708 0.802 0.762 1.724 1.378 2.731 1.822-0.631 3.369-0.956 6.787-0.973 10.214v115.485h-119.467c-27.477 0.032-49.749 22.3-49.783 49.777v19.911c0 5.498 4.463 9.956 9.958 9.956h457.958c5.495 0 9.95-4.458 9.95-9.956v-19.911c-0.034-27.477-22.298-49.745-49.775-49.777h-119.467v-51.182c18.714 3.925 37.786 5.926 56.909 5.973 45.884-0.049 91.034-11.488 131.413-33.291l15.266 15.362c1.852 1.89 4.386 2.965 7.031 2.987 2.611-0.014 5.111-1.055 6.972-2.897l28.228-28.075c3.891-3.888 3.891-10.19 0-14.077zM1287.893 329.684c7.791-7.755 20.403-7.72 28.151 0.076 7.757 7.797 7.723 20.404-0.077 28.158-3.729 3.712-8.781 5.795-14.046 5.794h-0.060c-10.991-0.057-19.857-9.017-19.806-20.014 0.026-5.264 2.142-10.301 5.871-14.014h-0.034zM1264.452 395.102l-11.17 54.985-21.939-22.071 33.109-32.913zM1253.146 378.267l-35.84 35.631-27.725-27.876 63.565-7.755zM1301.41 750.933c16.495 0 29.867 13.372 29.867 29.867v9.956h-438.042v-9.956c0-16.495 13.372-29.867 29.867-29.867h378.308zM1162.035 711.111v19.912h-99.558v-19.912h99.558zM1062.477 691.2v-75.663c0-24.152 22.332-43.804 49.775-43.804 27.452 0 49.783 19.652 49.783 43.804v75.663h-99.558zM1181.943 659.541v-44.004c0-35.133-31.258-63.715-69.692-63.715-24.841-0.381-48.077 12.266-61.244 33.341-75.742-79.777-92.8-198.71-42.53-296.56l347.23 349.225c-53.615 27.276-115.081 34.955-173.764 21.713zM1392.674 646.778l-393.071-395.375 14.089-14.037 148.122 148.955c0.068 0 0.111 0.13 0.179 0.179l244.804 246.24-14.123 14.037z"></path>
<path fill="#2196f3" d="M1112.346 591.644h-0.094c-16.495-0.025-29.884 13.327-29.909 29.822s13.329 29.886 29.824 29.911h0.085c16.495 0.025 29.892-13.327 29.918-29.821 0.017-16.496-13.329-29.887-29.824-29.912zM1119.309 628.57c-1.869 1.864-4.412 2.907-7.057 2.897-5.495-0.029-9.933-4.509-9.899-10.007 0.009-2.632 1.067-5.151 2.935-7.007 1.852-1.843 4.352-2.883 6.963-2.897 5.504 0.028 9.933 4.508 9.907 10.006-0.017 2.632-1.067 5.151-2.935 7.008h0.085z"></path>
</svg>
