<!-- Generated by IcoMoon.io -->
<svg version="1.1" xmlns="http://www.w3.org/2000/svg" width="2072" height="1024" viewBox="0 0 2072 1024">
<title></title>
<g id="icomoon-ignore">
</g>
<path fill="#2196f3" d="M320.517 319.459h-0.071c-58.466 0-105.863 42.121-105.863 94.079v0.061c0 51.958 47.397 94.079 105.863 94.079h0.071c58.466 0 105.862-42.121 105.862-94.079v-0.061c0-51.958-47.397-94.079-105.862-94.079z"></path>
<path fill="#2196f3" d="M1101.897 289.385c-0.166-72.168-32.492-141.338-89.907-192.374s-135.241-79.781-216.447-79.945v0c-81.23 0.131-159.091 28.862-216.535 79.901-57.446 51.040-89.793 120.229-89.958 192.418v397.965c0 0 612.779-60.652 612.847-397.904v-0.061z"></path>
<path fill="#2196f3" d="M0 817.969c0.147 50.215 22.654 98.336 62.601 133.849s94.088 55.53 150.591 55.679c56.491-0.149 110.622-20.158 150.565-55.657 39.946-35.499 62.462-83.605 62.627-133.81v-276.912c0 0-426.384 42.235-426.384 276.851zM213.191 867.582c-11.042 0-21.835-2.909-31.016-8.36s-16.336-13.2-20.562-22.267c-4.225-9.065-5.331-19.042-3.177-28.665 2.154-9.626 7.471-18.466 15.279-25.405s17.755-11.664 28.584-13.578c10.83-1.914 22.055-0.931 32.256 2.823s18.921 10.116 25.055 18.274c6.134 8.158 9.409 17.752 9.409 27.565 0.027 6.529-1.397 13.002-4.189 19.044-2.794 6.039-6.902 11.532-12.088 16.157-5.188 4.628-11.352 8.299-18.138 10.803-6.787 2.506-14.064 3.796-21.413 3.796v-0.188z"></path>
<path fill="#2196f3" d="M644.089 840.258h-41.143v42.501h-21.428v-103.999h67.713v17.357h-46.285v26.858h41.143v17.284zM747.088 833.117c0 10.238-1.809 19.215-5.43 26.929-3.618 7.714-8.809 13.666-15.572 17.857-6.712 4.191-14.429 6.285-23.142 6.285-8.619 0-16.308-2.072-23.072-6.215-6.761-4.142-12-10.047-15.714-17.713-3.713-7.714-5.595-16.572-5.642-26.573v-5.142c0-10.238 1.833-19.239 5.498-26.999 3.716-7.812 8.931-13.787 15.643-17.93 6.763-4.191 14.477-6.285 23.145-6.285 8.665 0 16.357 2.094 23.072 6.285 6.761 4.142 11.976 10.118 15.643 17.93 3.713 7.76 5.571 16.738 5.571 26.926v4.645zM725.372 828.401c0-10.903-1.95-19.19-5.856-24.856-3.903-5.666-9.477-8.499-16.713-8.499-7.192 0-12.739 2.809-16.645 8.428-3.903 5.571-5.881 13.761-5.927 24.571v5.071c0 10.618 1.953 18.856 5.856 24.713 3.906 5.859 9.523 8.787 16.857 8.787 7.19 0 12.715-2.809 16.572-8.428 3.857-5.666 5.81-13.904 5.856-24.715v-5.071zM816.589 855.474c0-4.047-1.429-7.144-4.286-9.287-2.857-2.189-7.999-4.476-15.428-6.856-7.429-2.431-13.31-4.81-17.644-7.144-11.808-6.38-17.713-14.977-17.713-25.785 0-5.62 1.57-10.62 4.713-15.002 3.191-4.428 7.739-7.88 13.644-10.357 5.951-2.475 12.62-3.713 20-3.713 7.429 0 14.048 1.358 19.858 4.072 5.808 2.667 10.308 6.451 13.5 11.357 3.238 4.905 4.857 10.476 4.857 16.713h-21.428c0-4.762-1.499-8.45-4.501-11.071-2.999-2.665-7.214-3.998-12.642-3.998-5.239 0-9.311 1.119-12.215 3.357-2.906 2.189-4.357 5.096-4.357 8.714 0 3.382 1.69 6.215 5.071 8.499 3.428 2.287 8.453 4.43 15.070 6.429 12.19 3.667 21.072 8.214 26.644 13.644 5.571 5.427 8.358 12.19 8.358 20.285 0 8.999-3.406 16.072-10.216 21.214-6.807 5.096-15.974 7.643-27.499 7.643-7.999 0-15.284-1.453-21.858-4.357-6.571-2.953-11.596-6.975-15.070-12.071-3.43-5.096-5.144-11.001-5.144-17.715h21.502c0 11.476 6.856 17.215 20.57 17.215 5.096 0 9.072-1.024 11.93-3.072 2.857-2.094 4.286-5.001 4.286-8.714zM930.945 796.116h-31.859v86.643h-21.428v-86.643h-31.427v-17.357h84.714v17.357zM1005.802 837.688h-41.143v27.858h48.286v17.213h-69.715v-103.999h69.571v17.357h-48.143v24.786h41.143v16.786zM1064.016 844.688h-17.072v38.071h-21.428v-103.999h38.644c12.286 0 21.76 2.738 28.428 8.214 6.666 5.476 9.999 13.214 9.999 23.213 0 7.097-1.546 13.024-4.642 17.786-3.048 4.715-7.69 8.477-13.929 11.286l22.501 42.501v1h-23.001l-19.5-38.071zM1046.945 827.331h17.286c5.381 0 9.548-1.358 12.5-4.072 2.953-2.762 4.428-6.549 4.428-11.357 0-4.905-1.404-8.763-4.213-11.574-2.762-2.809-7.024-4.213-12.785-4.213h-17.215v31.215zM1176.803 846.117v36.642h-21.428v-103.999h40.57c7.809 0 14.668 1.429 20.573 4.286 5.951 2.857 10.523 6.927 13.714 12.212 3.189 5.239 4.786 11.215 4.786 17.93 0 10.191-3.501 18.237-10.501 24.142-6.953 5.859-16.596 8.787-28.928 8.787h-18.786zM1176.803 828.76h19.141c5.669 0 9.977-1.334 12.929-4.001 2.999-2.667 4.501-6.476 4.501-11.427 0-5.096-1.502-9.216-4.501-12.359s-7.144-4.762-12.429-4.857h-19.641v32.644zM1312.373 837.688h-41.143v27.858h48.286v17.213h-69.715v-103.999h69.571v17.357h-48.143v24.786h41.143v16.786zM1411.801 796.116h-31.856v86.643h-21.428v-86.643h-31.429v-17.357h84.714v17.357zM1486.66 837.688h-41.143v27.858h48.284v17.213h-69.712v-103.999h69.571v17.357h-48.143v24.786h41.143v16.786zM1544.875 844.688h-17.072v38.071h-21.428v-103.999h38.641c12.286 0 21.762 2.738 28.428 8.214 6.668 5.476 10.001 13.214 10.001 23.213 0 7.097-1.548 13.024-4.642 17.786-3.048 4.715-7.692 8.477-13.929 11.286l22.499 42.501v1h-22.999l-19.5-38.071zM1527.803 827.331h17.284c5.381 0 9.548-1.358 12.5-4.072 2.953-2.762 4.43-6.549 4.43-11.357 0-4.905-1.404-8.763-4.215-11.574-2.762-2.809-7.024-4.213-12.785-4.213h-17.213v31.215zM1653.731 855.474c0-4.047-1.429-7.144-4.286-9.287-2.857-2.189-7.999-4.476-15.428-6.856-7.429-2.431-13.31-4.81-17.642-7.144-11.81-6.38-17.715-14.977-17.715-25.785 0-5.62 1.573-10.62 4.715-15.002 3.189-4.428 7.736-7.88 13.641-10.357 5.954-2.475 12.62-3.713 20-3.713 7.429 0 14.048 1.358 19.858 4.072 5.81 2.667 10.311 6.451 13.5 11.357 3.238 4.905 4.857 10.476 4.857 16.713h-21.428c0-4.762-1.499-8.45-4.498-11.071-3.001-2.665-7.214-3.998-12.644-3.998-5.237 0-9.309 1.119-12.215 3.357-2.904 2.189-4.357 5.096-4.357 8.714 0 3.382 1.69 6.215 5.071 8.499 3.428 2.287 8.453 4.43 15.072 6.429 12.19 3.667 21.070 8.214 26.644 13.644 5.571 5.427 8.355 12.19 8.355 20.285 0 8.999-3.404 16.072-10.213 21.214-6.81 5.096-15.977 7.643-27.499 7.643-8.002 0-15.287-1.453-21.858-4.357-6.573-2.953-11.596-6.975-15.072-12.071-3.428-5.096-5.142-11.001-5.142-17.715h21.499c0 11.476 6.858 17.215 20.573 17.215 5.093 0 9.070-1.024 11.927-3.072 2.857-2.094 4.286-5.001 4.286-8.714z"></path>
</svg>
